<?xml version="1.0" encoding="utf-8"?>
<!-- Generator: Adobe Illustrator 18.0.0, SVG Export Plug-In . SVG Version: 6.00 Build 0)  -->
<!DOCTYPE svg PUBLIC "-//W3C//DTD SVG 1.1//EN" "http://www.w3.org/Graphics/SVG/1.1/DTD/svg11.dtd">
<svg version="1.1" id="レイヤー_1" xmlns="http://www.w3.org/2000/svg" xmlns:xlink="http://www.w3.org/1999/xlink" x="0px"
	 y="0px" viewBox="0.1 296 960 237" enable-background="new 0.1 296 960 237" xml:space="preserve">
<g>
	<path d="M139.5,514.7c0,12.4-6.4,18.5-18.2,18.5c-19.5,0-19.5-12.4-19.5-23.5h11.4c0,9.2,0.6,13.7,7.2,13.7c6.4,0,6.9-4.1,6.9-8.6
		v-41.6h12.3v41.6h-0.1V514.7z"/>
	<path d="M198.6,511.3c0,15.4-9.3,22-24,22c-5.4,0-13.4-1.3-18.6-7.1c-3.2-3.5-4.5-8.3-4.6-14.2v-38.8h12.5v38
		c0,8.1,4.8,11.8,10.4,11.8c8.4,0,11.9-4.1,11.9-11.2v-38.5h12.5L198.6,511.3L198.6,511.3z"/>
	<polygon points="246.2,473.2 257.6,473.2 257.6,531.7 245.4,531.7 221.5,490 221.3,490 221.3,531.7 209.9,531.7 209.9,473.2 
		222.8,473.2 246,513.9 246.2,513.9 	"/>
	<polygon points="308.7,531.7 296.5,531.7 296.5,483.5 278.8,483.5 278.8,473.2 326.5,473.2 326.5,483.5 308.7,483.5 	"/>
	<path d="M349.5,486.3h0.1l7.3,23.1H342L349.5,486.3 M338.7,519.6h21.6l3.8,12.1h13.3l-20.6-58.5h-14.1l-20.9,58.5h12.9L338.7,519.6
		L338.7,519.6z"/>
	<polygon points="398.3,531.7 386.1,531.7 386.1,473.2 398.3,473.2 398.3,497 420.7,473.2 436.4,473.2 412.6,497.1 437.8,531.7 
		422.1,531.7 404,506 398.3,511.9 	"/>
	<path d="M467.1,486.3h0.2l7.3,23.1h-14.9L467.1,486.3 M456.4,519.6H478l3.8,12.1h13.3l-20.6-58.5h-14.1l-20.9,58.5h12.9
		L456.4,519.6L456.4,519.6z"/>
	<polygon points="514.8,505.4 514.8,531.7 502.5,531.7 502.5,473.2 514.8,473.2 514.8,495.4 537.6,495.4 537.6,473.2 549.8,473.2 
		549.8,531.7 537.6,531.7 537.6,505.4 	"/>
	<path d="M585,486.3L585,486.3l7.4,23.1h-14.9L585,486.3 M574.2,519.6h21.6l3.8,12.1h13.3l-20.6-58.5h-14.1l-20.9,58.5h12.9
		L574.2,519.6L574.2,519.6z"/>
	<path d="M629.4,513.7c0.1,3.2,1.7,9.4,12.4,9.4c5.8,0,12.3-1.4,12.3-7.6c0-4.6-4.4-5.8-10.6-7.2l-6.3-1.5
		c-9.4-2.2-18.6-4.4-18.6-17.2c0-6.5,3.5-18,22.5-18c18,0,22.7,11.8,22.8,18.9h-11.8c-0.3-2.6-1.3-8.8-12-8.8
		c-4.7,0-10.1,1.7-10.1,7c0,4.6,3.8,5.6,6.2,6.1l14.3,3.5c8,1.9,15.3,5.2,15.3,15.7c0,17.6-18,19.2-23.1,19.2
		c-21.3,0-25-12.3-25-19.6L629.4,513.7L629.4,513.7z"/>
	<polygon points="686.8,505.4 686.8,531.7 674.6,531.7 674.6,473.2 686.8,473.2 686.8,495.4 709.6,495.4 709.6,473.2 721.9,473.2 
		721.9,531.7 709.6,531.7 709.6,505.4 	"/>
	<polygon points="745.1,531.7 732.8,531.7 732.8,473.2 745.1,473.2 	"/>
	<path d="M72.6,421.1c0,23.7-14.3,33.9-37,33.9c-8.3,0-20.6-2-28.6-11c-4.9-5.5-6.8-12.8-7-21.8v-59.7h19.2v58.4
		c0,12.6,7.3,18.1,16,18.1c13,0,18.2-6.3,18.2-17.1v-59.3h19.3v58.5H72.6z"/>
	<polygon points="146,362.5 163.7,362.5 163.7,452.6 144.8,452.6 108,388.3 107.8,388.3 107.8,452.6 90.2,452.6 90.2,362.5 
		110,362.5 145.8,425.2 146,425.2 	"/>
	<path d="M200.2,378h18.1c8,0,20.7,2.1,20.7,28.8c0,14.8-5.2,30.2-20.5,30.2h-18.4v-59 M181.7,452.6h39c29.7,0,37.4-27.8,37.4-47.2
		c0-17-6.3-42.9-36.6-42.9h-39.8L181.7,452.6L181.7,452.6z"/>
	<polygon points="338.6,378.4 290.9,378.4 290.9,397.4 334.8,397.4 334.8,413.3 290.9,413.3 290.9,436.7 340.8,436.7 340.8,452.6 
		272.4,452.6 272.4,362.5 338.6,362.5 	"/>
	<path d="M374.5,402.2v-24.1h23.4c11.1,0,13.2,7,13.2,11.8c0,8.9-4.8,12.3-14.5,12.3L374.5,402.2 M356.1,452.6h18.5v-35.3h19.5
		c13.9,0,14.7,4.8,14.7,17c0,9.3,0.7,13.9,2,18.2h20.8v-2.4c-4.1-1.5-4.1-4.8-4.1-18c0-16.8-4.1-19.6-11.4-22.8
		c8.9-3,13.9-11.6,13.9-21.5c0-7.8-4.4-25.5-28.4-25.5h-45.5V452.6L356.1,452.6z"/>
	<path d="M504.3,392c-1.5-5.4-4.4-15.5-20-15.5c-9,0-22.3,6-22.3,31.5c0,16.2,6.4,30.7,22.3,30.7c10.4,0,17.6-5.9,20-16.9h18.9
		c-3.8,19.6-16.5,33.3-39.1,33.3c-23.9,0-41.2-16.2-41.2-47.4c0-31.5,18.2-47.6,41.5-47.6c27,0,37.9,18.6,38.9,31.9H504.3L504.3,392
		z"/>
	<path d="M552.3,407.5c0-25.3,14.3-31.5,24.4-31.5c10.1,0,24.4,6.3,24.4,31.5c0,25.3-14.3,31.5-24.4,31.5
		C566.6,439.1,552.3,432.8,552.3,407.5 M533.4,407.5c0,42.3,31.4,47.5,43.3,47.5c12,0,43.3-5.2,43.3-47.5S588.7,360,576.7,360
		C564.8,360.1,533.4,365.3,533.4,407.5L533.4,407.5z"/>
	<polygon points="681.1,362.5 700.7,362.5 670.1,452.6 652.1,452.6 621.7,362.5 642,362.5 661.2,430.8 661.5,430.8 	"/>
	<polygon points="778.9,378.4 731,378.4 731,397.4 775,397.4 775,413.3 731,413.3 731,436.7 781,436.7 781,452.6 712.6,452.6 
		712.6,362.5 778.9,362.5 	"/>
	<path d="M814.8,402.2v-24.1h23.5c11.1,0,13.2,7,13.2,11.8c0,8.9-4.8,12.3-14.6,12.3L814.8,402.2 M796.3,452.6h18.5v-35.3h19.4
		c13.9,0,14.7,4.8,14.7,17c0,9.3,0.7,13.9,2,18.2h20.8v-2.4c-4.1-1.5-4.1-4.8-4.1-18c0-16.8-4.1-19.6-11.5-22.8
		c8.9-3,14-11.6,14-21.5c0-7.8-4.4-25.5-28.4-25.5h-45.5v90.3H796.3z"/>
	<path d="M918.3,296.5c-23.1,0-41.8,18.7-41.8,41.7c0,23,18.7,41.8,41.8,41.8c23,0,41.7-18.7,41.7-41.8
		C960,315.2,941.3,296.5,918.3,296.5 M918.3,372.8c-19.1,0-34.6-15.4-34.6-34.6c0-19.1,15.5-34.5,34.6-34.5
		c19.1,0,34.6,15.4,34.6,34.5C952.9,357.3,937.4,372.8,918.3,372.8L918.3,372.8z"/>
	<path d="M934.2,313.3V339c0,8.1-5.1,14.9-15.9,14.9c-10.6,0-15.2-6.8-15.2-14.2v-26.4h5.3v24.8c0,8.6,5.3,11,10,11
		c4.9,0,10.4-2.2,10.4-10.9v-24.9H934.2L934.2,313.3z"/>
	<polygon points="934,362.6 903.1,362.6 903.1,357.4 934,357.4 	"/>
</g>
<rect id="_x3C_スライス_x3E_" x="0.1" y="296" fill="none" width="960" height="237"/>
</svg>
